<?xml version="1.0" encoding="utf-8"?>
<!-- Generator: Adobe Illustrator 22.0.1, SVG Export Plug-In . SVG Version: 6.00 Build 0)  -->
<svg version="1.1" id="Ebene_1" xmlns="http://www.w3.org/2000/svg" xmlns:xlink="http://www.w3.org/1999/xlink" x="0px" y="0px"
	 viewBox="0 0 96 96" style="enable-background:new 0 0 96 96;" xml:space="preserve">
<style type="text/css">
	.st0{fill:#7D84DF;}
	.st1{fill:#7C83DF;}
</style>
<rect x="30" y="18" class="st0" width="54" height="6"/>
<rect x="30" y="30" class="st0" width="54" height="6"/>
<rect x="59.5" y="42" class="st0" width="24.5" height="6"/>
<image style="overflow:visible;enable-background:new    ;" width="78" height="96" xlink:href="6A3AB2C26B16B9F7.png"  transform="matrix(1 0 0 1 18 0)">
</image>
<path class="st1" d="M33.1,68.3c0,7.3,5.9,13.2,13.2,13.2c7.3,0,13.2-5.9,13.2-13.2c0-7.3-5.9-13.2-13.2-13.2
	C39,55.1,33.1,61,33.1,68.3L33.1,68.3z"/>
<path class="st1" d="M2.5,68.3c0,7.3,5.9,13.2,13.2,13.2S29,75.6,29,68.3C29,61,23,55.1,15.7,55.1S2.5,61,2.5,68.3z"/>
</svg>
