<?xml version="1.0" encoding="utf-8"?>
<!-- Generator: Adobe Illustrator 22.0.1, SVG Export Plug-In . SVG Version: 6.00 Build 0)  -->
<svg version="1.1" id="Ebene_1" xmlns="http://www.w3.org/2000/svg" xmlns:xlink="http://www.w3.org/1999/xlink" x="0px" y="0px"
	 viewBox="0 0 96 96" style="enable-background:new 0 0 96 96;" xml:space="preserve">
<style type="text/css">
	.st0{fill:#7D84DF;}
	.st1{fill:#7C83DF;enable-background:new    ;}
</style>
<g>
	<path class="st0" d="M25.8,49.1c6.9,0,7.7,0,10.4,0.2c2.5,0.1,3.9,0.5,4.8,0.9c1.2,0.5,2.1,1,3,1.9s1.5,1.8,1.9,3
		c0.4,0.9,0.8,2.3,0.9,4.8c0.1,2.7,0.1,3.5,0.1,10.4s0,7.7-0.1,10.4c-0.1,2.5-0.5,3.9-0.9,4.8c-0.5,1.2-1,2.1-1.9,3s-1.8,1.5-3,1.9
		c-0.9,0.4-2.3,0.8-4.8,0.9c-2.7,0.1-3.5,0.2-10.4,0.2s-7.7,0-10.4-0.2c-2.5-0.1-3.9-0.5-4.8-0.9c-1.2-0.5-2.1-1-3-1.9
		s-1.5-1.8-1.9-3c-0.4-0.9-0.8-2.3-0.9-4.8C4.7,78,4.6,77.2,4.6,70.3s0-7.7,0.2-10.4c0.1-2.5,0.5-3.9,0.9-4.8c0.5-1.2,1-2.1,1.9-3
		s1.8-1.5,3-1.9c0.9-0.4,2.3-0.8,4.8-0.9C18.1,49.2,18.9,49.1,25.8,49.1 M25.8,44.5c-7,0-7.9,0-10.6,0.2c-2.7,0.1-4.6,0.6-6.3,1.2
		c-1.7,0.7-3.1,1.5-4.6,3c-1.4,1.4-2.3,2.9-3,4.6c-0.6,1.6-1.1,3.5-1.2,6.3C0,62.4,0,63.3,0,70.2c0,7,0,7.9,0.2,10.6
		c0.1,2.7,0.6,4.6,1.2,6.3c0.7,1.7,1.5,3.1,3,4.6c1.4,1.4,2.9,2.3,4.6,3c1.6,0.6,3.5,1.1,6.3,1.2C17.9,96,18.8,96,25.8,96
		s7.9,0,10.6-0.2c2.7-0.1,4.6-0.6,6.3-1.2c1.7-0.7,3.1-1.5,4.6-3c1.4-1.4,2.3-2.9,3-4.6c0.6-1.6,1.1-3.5,1.2-6.3
		c0.1-2.7,0.2-3.6,0.2-10.6s0-7.9-0.2-10.6c-0.1-2.7-0.6-4.6-1.2-6.3c-0.7-1.7-1.5-3.1-3-4.6c-1.4-1.4-2.9-2.3-4.6-3
		c-1.6-0.6-3.5-1.1-6.3-1.2C33.6,44.5,32.7,44.5,25.8,44.5L25.8,44.5z"/>
</g>
<circle class="st0" cx="16.9" cy="70.2" r="6.8"/>
<circle class="st0" cx="34.9" cy="70.2" r="6.8"/>
<rect x="30" y="18" class="st0" width="54" height="6"/>
<rect x="30" y="30" class="st0" width="54" height="6"/>
<rect x="59.5" y="42" class="st0" width="24.5" height="6"/>
<rect x="57" y="90" class="st1" width="39" height="6"/>
<rect x="18" class="st1" width="78" height="7"/>
<rect x="45" y="45" transform="matrix(1.822815e-11 -1 1 1.822815e-11 45 141)" class="st1" width="96" height="6"/>
<rect x="3" y="15" transform="matrix(4.860740e-11 -1 1 4.860740e-11 3 39)" class="st1" width="36" height="6"/>
</svg>
